<mxfile host="Electron" modified="2024-01-15T06:48:26.500Z" agent="Mozilla/5.0 (Windows NT 10.0; Win64; x64) AppleWebKit/537.36 (KHTML, like Gecko) draw.io/22.1.11 Chrome/114.0.5735.289 Electron/25.9.8 Safari/537.36" etag="Yt5_vz-jIdpX4JH9V8UU" version="22.1.11" type="device">
  <diagram name="페이지-1" id="Ia2RjrC-8GxDR24fsoVm">
    <mxGraphModel dx="1105" dy="678" grid="1" gridSize="10" guides="1" tooltips="1" connect="1" arrows="1" fold="1" page="1" pageScale="1" pageWidth="827" pageHeight="1169" math="0" shadow="0">
      <root>
        <mxCell id="0" />
        <mxCell id="1" parent="0" />
        <mxCell id="JMdHC_H9hg7_npxenP9R-2" style="edgeStyle=orthogonalEdgeStyle;rounded=0;orthogonalLoop=1;jettySize=auto;html=1;" edge="1" parent="1">
          <mxGeometry relative="1" as="geometry">
            <mxPoint x="340" y="140" as="targetPoint" />
            <Array as="points">
              <mxPoint x="300" y="180" />
              <mxPoint x="300" y="140" />
            </Array>
            <mxPoint x="250" y="180" as="sourcePoint" />
          </mxGeometry>
        </mxCell>
        <mxCell id="JMdHC_H9hg7_npxenP9R-177" value="75" style="edgeLabel;html=1;align=center;verticalAlign=middle;resizable=0;points=[];" vertex="1" connectable="0" parent="JMdHC_H9hg7_npxenP9R-2">
          <mxGeometry x="0.6" y="-1" relative="1" as="geometry">
            <mxPoint as="offset" />
          </mxGeometry>
        </mxCell>
        <mxCell id="JMdHC_H9hg7_npxenP9R-3" style="edgeStyle=orthogonalEdgeStyle;rounded=0;orthogonalLoop=1;jettySize=auto;html=1;" edge="1" parent="1">
          <mxGeometry relative="1" as="geometry">
            <mxPoint x="340" y="220" as="targetPoint" />
            <Array as="points">
              <mxPoint x="300" y="180" />
              <mxPoint x="300" y="220" />
            </Array>
            <mxPoint x="250" y="180" as="sourcePoint" />
          </mxGeometry>
        </mxCell>
        <mxCell id="JMdHC_H9hg7_npxenP9R-179" value="50" style="edgeLabel;html=1;align=center;verticalAlign=middle;resizable=0;points=[];" vertex="1" connectable="0" parent="JMdHC_H9hg7_npxenP9R-3">
          <mxGeometry x="0.6" relative="1" as="geometry">
            <mxPoint as="offset" />
          </mxGeometry>
        </mxCell>
        <mxCell id="JMdHC_H9hg7_npxenP9R-44" style="edgeStyle=orthogonalEdgeStyle;rounded=0;orthogonalLoop=1;jettySize=auto;html=1;exitX=1;exitY=0.5;exitDx=0;exitDy=0;entryX=0;entryY=0.5;entryDx=0;entryDy=0;" edge="1" parent="1" source="JMdHC_H9hg7_npxenP9R-28" target="JMdHC_H9hg7_npxenP9R-10">
          <mxGeometry relative="1" as="geometry">
            <mxPoint x="700" y="310" as="targetPoint" />
            <mxPoint x="540" y="140" as="sourcePoint" />
            <Array as="points">
              <mxPoint x="600" y="140" />
              <mxPoint x="600" y="340" />
            </Array>
          </mxGeometry>
        </mxCell>
        <mxCell id="JMdHC_H9hg7_npxenP9R-180" value="100" style="edgeLabel;html=1;align=center;verticalAlign=middle;resizable=0;points=[];" vertex="1" connectable="0" parent="JMdHC_H9hg7_npxenP9R-44">
          <mxGeometry x="0.8" relative="1" as="geometry">
            <mxPoint as="offset" />
          </mxGeometry>
        </mxCell>
        <mxCell id="JMdHC_H9hg7_npxenP9R-118" style="edgeStyle=orthogonalEdgeStyle;rounded=0;orthogonalLoop=1;jettySize=auto;html=1;exitX=1;exitY=0.5;exitDx=0;exitDy=0;" edge="1" parent="1">
          <mxGeometry relative="1" as="geometry">
            <mxPoint x="340" y="300" as="targetPoint" />
            <mxPoint x="250" y="340" as="sourcePoint" />
            <Array as="points">
              <mxPoint x="300" y="340" />
              <mxPoint x="300" y="300" />
            </Array>
          </mxGeometry>
        </mxCell>
        <mxCell id="JMdHC_H9hg7_npxenP9R-188" value="75" style="edgeLabel;html=1;align=center;verticalAlign=middle;resizable=0;points=[];" vertex="1" connectable="0" parent="JMdHC_H9hg7_npxenP9R-118">
          <mxGeometry x="0.6" relative="1" as="geometry">
            <mxPoint as="offset" />
          </mxGeometry>
        </mxCell>
        <mxCell id="JMdHC_H9hg7_npxenP9R-119" style="edgeStyle=orthogonalEdgeStyle;rounded=0;orthogonalLoop=1;jettySize=auto;html=1;" edge="1" parent="1">
          <mxGeometry relative="1" as="geometry">
            <mxPoint x="340" y="380" as="targetPoint" />
            <mxPoint x="250" y="340" as="sourcePoint" />
            <Array as="points">
              <mxPoint x="300" y="340" />
              <mxPoint x="300" y="380" />
            </Array>
          </mxGeometry>
        </mxCell>
        <mxCell id="JMdHC_H9hg7_npxenP9R-189" value="75" style="edgeLabel;html=1;align=center;verticalAlign=middle;resizable=0;points=[];" vertex="1" connectable="0" parent="JMdHC_H9hg7_npxenP9R-119">
          <mxGeometry x="0.6" relative="1" as="geometry">
            <mxPoint as="offset" />
          </mxGeometry>
        </mxCell>
        <mxCell id="JMdHC_H9hg7_npxenP9R-121" style="edgeStyle=orthogonalEdgeStyle;rounded=0;orthogonalLoop=1;jettySize=auto;html=1;" edge="1" parent="1">
          <mxGeometry relative="1" as="geometry">
            <mxPoint x="340" y="540" as="targetPoint" />
            <mxPoint x="250" y="500" as="sourcePoint" />
            <Array as="points">
              <mxPoint x="300" y="500" />
              <mxPoint x="300" y="540" />
            </Array>
          </mxGeometry>
        </mxCell>
        <mxCell id="JMdHC_H9hg7_npxenP9R-191" value="75" style="edgeLabel;html=1;align=center;verticalAlign=middle;resizable=0;points=[];" vertex="1" connectable="0" parent="JMdHC_H9hg7_npxenP9R-121">
          <mxGeometry x="0.6" relative="1" as="geometry">
            <mxPoint as="offset" />
          </mxGeometry>
        </mxCell>
        <mxCell id="JMdHC_H9hg7_npxenP9R-122" style="edgeStyle=orthogonalEdgeStyle;rounded=0;orthogonalLoop=1;jettySize=auto;html=1;exitX=1;exitY=0.5;exitDx=0;exitDy=0;" edge="1" parent="1">
          <mxGeometry relative="1" as="geometry">
            <mxPoint x="340" y="460" as="targetPoint" />
            <mxPoint x="250" y="500" as="sourcePoint" />
            <Array as="points">
              <mxPoint x="300" y="500" />
              <mxPoint x="300" y="460" />
            </Array>
          </mxGeometry>
        </mxCell>
        <mxCell id="JMdHC_H9hg7_npxenP9R-190" value="50" style="edgeLabel;html=1;align=center;verticalAlign=middle;resizable=0;points=[];" vertex="1" connectable="0" parent="JMdHC_H9hg7_npxenP9R-122">
          <mxGeometry x="0.6" relative="1" as="geometry">
            <mxPoint as="offset" />
          </mxGeometry>
        </mxCell>
        <mxCell id="JMdHC_H9hg7_npxenP9R-124" value="50" style="endArrow=classic;html=1;rounded=0;" edge="1" parent="1">
          <mxGeometry width="50" height="50" relative="1" as="geometry">
            <mxPoint x="20" y="340" as="sourcePoint" />
            <mxPoint x="70" y="340" as="targetPoint" />
          </mxGeometry>
        </mxCell>
        <mxCell id="JMdHC_H9hg7_npxenP9R-125" value="50" style="endArrow=classic;html=1;rounded=0;" edge="1" parent="1">
          <mxGeometry width="50" height="50" relative="1" as="geometry">
            <mxPoint x="20" y="179.6" as="sourcePoint" />
            <mxPoint x="70" y="180" as="targetPoint" />
          </mxGeometry>
        </mxCell>
        <mxCell id="JMdHC_H9hg7_npxenP9R-135" value="" style="group" vertex="1" connectable="0" parent="1">
          <mxGeometry x="350" y="200" width="190" height="60" as="geometry" />
        </mxCell>
        <mxCell id="JMdHC_H9hg7_npxenP9R-1" value="" style="rounded=0;whiteSpace=wrap;html=1;" vertex="1" parent="JMdHC_H9hg7_npxenP9R-135">
          <mxGeometry x="10" width="40" height="40" as="geometry" />
        </mxCell>
        <mxCell id="JMdHC_H9hg7_npxenP9R-181" style="edgeStyle=orthogonalEdgeStyle;rounded=0;orthogonalLoop=1;jettySize=auto;html=1;endArrow=none;endFill=0;" edge="1" parent="JMdHC_H9hg7_npxenP9R-135" source="JMdHC_H9hg7_npxenP9R-5">
          <mxGeometry relative="1" as="geometry">
            <mxPoint x="250" y="20" as="targetPoint" />
          </mxGeometry>
        </mxCell>
        <mxCell id="JMdHC_H9hg7_npxenP9R-5" value="" style="rounded=0;whiteSpace=wrap;html=1;" vertex="1" parent="JMdHC_H9hg7_npxenP9R-135">
          <mxGeometry x="60" width="120" height="40" as="geometry" />
        </mxCell>
        <mxCell id="JMdHC_H9hg7_npxenP9R-6" value="0" style="text;html=1;strokeColor=none;fillColor=none;align=center;verticalAlign=middle;whiteSpace=wrap;rounded=0;" vertex="1" parent="JMdHC_H9hg7_npxenP9R-135">
          <mxGeometry y="40" width="20" height="20" as="geometry" />
        </mxCell>
        <mxCell id="JMdHC_H9hg7_npxenP9R-20" value="50" style="text;html=1;strokeColor=none;fillColor=none;align=center;verticalAlign=middle;whiteSpace=wrap;rounded=0;" vertex="1" parent="JMdHC_H9hg7_npxenP9R-135">
          <mxGeometry x="90" y="40" width="20" height="20" as="geometry" />
        </mxCell>
        <mxCell id="JMdHC_H9hg7_npxenP9R-21" value="75" style="text;html=1;strokeColor=none;fillColor=none;align=center;verticalAlign=middle;whiteSpace=wrap;rounded=0;" vertex="1" parent="JMdHC_H9hg7_npxenP9R-135">
          <mxGeometry x="130" y="40" width="20" height="20" as="geometry" />
        </mxCell>
        <mxCell id="JMdHC_H9hg7_npxenP9R-22" value="100" style="text;html=1;strokeColor=none;fillColor=none;align=center;verticalAlign=middle;whiteSpace=wrap;rounded=0;" vertex="1" parent="JMdHC_H9hg7_npxenP9R-135">
          <mxGeometry x="170" y="40" width="20" height="20" as="geometry" />
        </mxCell>
        <mxCell id="JMdHC_H9hg7_npxenP9R-23" value="" style="endArrow=none;dashed=1;html=1;rounded=0;exitX=0.25;exitY=1;exitDx=0;exitDy=0;entryX=0.25;entryY=0;entryDx=0;entryDy=0;" edge="1" parent="JMdHC_H9hg7_npxenP9R-135">
          <mxGeometry width="50" height="50" relative="1" as="geometry">
            <mxPoint x="99.43" y="40" as="sourcePoint" />
            <mxPoint x="99.43" as="targetPoint" />
          </mxGeometry>
        </mxCell>
        <mxCell id="JMdHC_H9hg7_npxenP9R-24" value="" style="endArrow=none;dashed=1;html=1;rounded=0;exitX=0.25;exitY=1;exitDx=0;exitDy=0;entryX=0.25;entryY=0;entryDx=0;entryDy=0;" edge="1" parent="JMdHC_H9hg7_npxenP9R-135">
          <mxGeometry width="50" height="50" relative="1" as="geometry">
            <mxPoint x="140" y="40" as="sourcePoint" />
            <mxPoint x="140" as="targetPoint" />
          </mxGeometry>
        </mxCell>
        <mxCell id="JMdHC_H9hg7_npxenP9R-31" value="25" style="text;html=1;strokeColor=none;fillColor=none;align=center;verticalAlign=middle;whiteSpace=wrap;rounded=0;" vertex="1" parent="JMdHC_H9hg7_npxenP9R-135">
          <mxGeometry x="40" y="40" width="30" height="20" as="geometry" />
        </mxCell>
        <mxCell id="JMdHC_H9hg7_npxenP9R-136" value="" style="group" vertex="1" connectable="0" parent="1">
          <mxGeometry x="350" y="120" width="190" height="60" as="geometry" />
        </mxCell>
        <mxCell id="JMdHC_H9hg7_npxenP9R-19" value="25" style="text;html=1;strokeColor=none;fillColor=none;align=center;verticalAlign=middle;whiteSpace=wrap;rounded=0;" vertex="1" parent="JMdHC_H9hg7_npxenP9R-136">
          <mxGeometry x="40" y="40" width="20" height="20" as="geometry" />
        </mxCell>
        <mxCell id="JMdHC_H9hg7_npxenP9R-25" value="" style="rounded=0;whiteSpace=wrap;html=1;" vertex="1" parent="JMdHC_H9hg7_npxenP9R-136">
          <mxGeometry x="10" width="80" height="40" as="geometry" />
        </mxCell>
        <mxCell id="JMdHC_H9hg7_npxenP9R-26" value="0" style="text;html=1;strokeColor=none;fillColor=none;align=center;verticalAlign=middle;whiteSpace=wrap;rounded=0;" vertex="1" parent="JMdHC_H9hg7_npxenP9R-136">
          <mxGeometry y="40" width="20" height="20" as="geometry" />
        </mxCell>
        <mxCell id="JMdHC_H9hg7_npxenP9R-27" value="50" style="text;html=1;strokeColor=none;fillColor=none;align=center;verticalAlign=middle;whiteSpace=wrap;rounded=0;" vertex="1" parent="JMdHC_H9hg7_npxenP9R-136">
          <mxGeometry x="80" y="40" width="30" height="20" as="geometry" />
        </mxCell>
        <mxCell id="JMdHC_H9hg7_npxenP9R-28" value="" style="rounded=0;whiteSpace=wrap;html=1;" vertex="1" parent="JMdHC_H9hg7_npxenP9R-136">
          <mxGeometry x="100" width="80" height="40" as="geometry" />
        </mxCell>
        <mxCell id="JMdHC_H9hg7_npxenP9R-29" value="75" style="text;html=1;strokeColor=none;fillColor=none;align=center;verticalAlign=middle;whiteSpace=wrap;rounded=0;" vertex="1" parent="JMdHC_H9hg7_npxenP9R-136">
          <mxGeometry x="130" y="40" width="20" height="20" as="geometry" />
        </mxCell>
        <mxCell id="JMdHC_H9hg7_npxenP9R-30" value="100" style="text;html=1;strokeColor=none;fillColor=none;align=center;verticalAlign=middle;whiteSpace=wrap;rounded=0;" vertex="1" parent="JMdHC_H9hg7_npxenP9R-136">
          <mxGeometry x="170" y="40" width="20" height="20" as="geometry" />
        </mxCell>
        <mxCell id="JMdHC_H9hg7_npxenP9R-40" value="" style="endArrow=none;dashed=1;html=1;rounded=0;exitX=0.25;exitY=1;exitDx=0;exitDy=0;entryX=0.25;entryY=0;entryDx=0;entryDy=0;" edge="1" parent="JMdHC_H9hg7_npxenP9R-136">
          <mxGeometry width="50" height="50" relative="1" as="geometry">
            <mxPoint x="49.71000000000001" y="40" as="sourcePoint" />
            <mxPoint x="49.71000000000001" as="targetPoint" />
          </mxGeometry>
        </mxCell>
        <mxCell id="JMdHC_H9hg7_npxenP9R-41" value="" style="endArrow=none;dashed=1;html=1;rounded=0;exitX=0.25;exitY=1;exitDx=0;exitDy=0;entryX=0.25;entryY=0;entryDx=0;entryDy=0;" edge="1" parent="JMdHC_H9hg7_npxenP9R-136">
          <mxGeometry width="50" height="50" relative="1" as="geometry">
            <mxPoint x="139.71000000000004" y="40" as="sourcePoint" />
            <mxPoint x="139.71000000000004" as="targetPoint" />
          </mxGeometry>
        </mxCell>
        <mxCell id="JMdHC_H9hg7_npxenP9R-137" value="" style="group" vertex="1" connectable="0" parent="1">
          <mxGeometry x="350" y="520" width="190" height="60" as="geometry" />
        </mxCell>
        <mxCell id="JMdHC_H9hg7_npxenP9R-32" value="" style="rounded=0;whiteSpace=wrap;html=1;" vertex="1" parent="JMdHC_H9hg7_npxenP9R-137">
          <mxGeometry x="10" width="120" height="40" as="geometry" />
        </mxCell>
        <mxCell id="JMdHC_H9hg7_npxenP9R-185" style="edgeStyle=orthogonalEdgeStyle;rounded=0;orthogonalLoop=1;jettySize=auto;html=1;endArrow=none;endFill=0;" edge="1" parent="JMdHC_H9hg7_npxenP9R-137" source="JMdHC_H9hg7_npxenP9R-33">
          <mxGeometry relative="1" as="geometry">
            <mxPoint x="250" y="-60" as="targetPoint" />
          </mxGeometry>
        </mxCell>
        <mxCell id="JMdHC_H9hg7_npxenP9R-33" value="" style="rounded=0;whiteSpace=wrap;html=1;" vertex="1" parent="JMdHC_H9hg7_npxenP9R-137">
          <mxGeometry x="140" width="40" height="40" as="geometry" />
        </mxCell>
        <mxCell id="JMdHC_H9hg7_npxenP9R-34" value="0" style="text;html=1;strokeColor=none;fillColor=none;align=center;verticalAlign=middle;whiteSpace=wrap;rounded=0;" vertex="1" parent="JMdHC_H9hg7_npxenP9R-137">
          <mxGeometry y="40" width="20" height="20" as="geometry" />
        </mxCell>
        <mxCell id="JMdHC_H9hg7_npxenP9R-35" value="50" style="text;html=1;strokeColor=none;fillColor=none;align=center;verticalAlign=middle;whiteSpace=wrap;rounded=0;" vertex="1" parent="JMdHC_H9hg7_npxenP9R-137">
          <mxGeometry x="80" y="40" width="20" height="20" as="geometry" />
        </mxCell>
        <mxCell id="JMdHC_H9hg7_npxenP9R-36" value="75" style="text;html=1;strokeColor=none;fillColor=none;align=center;verticalAlign=middle;whiteSpace=wrap;rounded=0;" vertex="1" parent="JMdHC_H9hg7_npxenP9R-137">
          <mxGeometry x="120" y="40" width="30" height="20" as="geometry" />
        </mxCell>
        <mxCell id="JMdHC_H9hg7_npxenP9R-37" value="100" style="text;html=1;strokeColor=none;fillColor=none;align=center;verticalAlign=middle;whiteSpace=wrap;rounded=0;" vertex="1" parent="JMdHC_H9hg7_npxenP9R-137">
          <mxGeometry x="170" y="40" width="20" height="20" as="geometry" />
        </mxCell>
        <mxCell id="JMdHC_H9hg7_npxenP9R-38" value="" style="endArrow=none;dashed=1;html=1;rounded=0;exitX=0.25;exitY=1;exitDx=0;exitDy=0;entryX=0.25;entryY=0;entryDx=0;entryDy=0;" edge="1" parent="JMdHC_H9hg7_npxenP9R-137">
          <mxGeometry width="50" height="50" relative="1" as="geometry">
            <mxPoint x="50" y="40" as="sourcePoint" />
            <mxPoint x="50" as="targetPoint" />
          </mxGeometry>
        </mxCell>
        <mxCell id="JMdHC_H9hg7_npxenP9R-39" value="25" style="text;html=1;strokeColor=none;fillColor=none;align=center;verticalAlign=middle;whiteSpace=wrap;rounded=0;" vertex="1" parent="JMdHC_H9hg7_npxenP9R-137">
          <mxGeometry x="40" y="40" width="20" height="20" as="geometry" />
        </mxCell>
        <mxCell id="JMdHC_H9hg7_npxenP9R-42" value="" style="endArrow=none;dashed=1;html=1;rounded=0;exitX=0.25;exitY=1;exitDx=0;exitDy=0;entryX=0.25;entryY=0;entryDx=0;entryDy=0;" edge="1" parent="JMdHC_H9hg7_npxenP9R-137">
          <mxGeometry width="50" height="50" relative="1" as="geometry">
            <mxPoint x="90" y="40" as="sourcePoint" />
            <mxPoint x="90" as="targetPoint" />
          </mxGeometry>
        </mxCell>
        <mxCell id="JMdHC_H9hg7_npxenP9R-138" value="" style="group" vertex="1" connectable="0" parent="1">
          <mxGeometry x="30" y="40" width="210" height="60" as="geometry" />
        </mxCell>
        <mxCell id="JMdHC_H9hg7_npxenP9R-126" value="" style="rounded=0;whiteSpace=wrap;html=1;" vertex="1" parent="JMdHC_H9hg7_npxenP9R-138">
          <mxGeometry x="10" width="40" height="40" as="geometry" />
        </mxCell>
        <mxCell id="JMdHC_H9hg7_npxenP9R-127" value="" style="rounded=0;whiteSpace=wrap;html=1;" vertex="1" parent="JMdHC_H9hg7_npxenP9R-138">
          <mxGeometry x="60" width="40" height="40" as="geometry" />
        </mxCell>
        <mxCell id="JMdHC_H9hg7_npxenP9R-128" value="" style="rounded=0;whiteSpace=wrap;html=1;" vertex="1" parent="JMdHC_H9hg7_npxenP9R-138">
          <mxGeometry x="160" width="40" height="40" as="geometry" />
        </mxCell>
        <mxCell id="JMdHC_H9hg7_npxenP9R-129" value="" style="rounded=0;whiteSpace=wrap;html=1;" vertex="1" parent="JMdHC_H9hg7_npxenP9R-138">
          <mxGeometry x="110" width="40" height="40" as="geometry" />
        </mxCell>
        <mxCell id="JMdHC_H9hg7_npxenP9R-130" value="0" style="text;html=1;strokeColor=none;fillColor=none;align=center;verticalAlign=middle;whiteSpace=wrap;rounded=0;" vertex="1" parent="JMdHC_H9hg7_npxenP9R-138">
          <mxGeometry y="40" width="20" height="20" as="geometry" />
        </mxCell>
        <mxCell id="JMdHC_H9hg7_npxenP9R-131" value="100" style="text;html=1;strokeColor=none;fillColor=none;align=center;verticalAlign=middle;whiteSpace=wrap;rounded=0;" vertex="1" parent="JMdHC_H9hg7_npxenP9R-138">
          <mxGeometry x="190" y="40" width="20" height="20" as="geometry" />
        </mxCell>
        <mxCell id="JMdHC_H9hg7_npxenP9R-132" value="75" style="text;html=1;strokeColor=none;fillColor=none;align=center;verticalAlign=middle;whiteSpace=wrap;rounded=0;" vertex="1" parent="JMdHC_H9hg7_npxenP9R-138">
          <mxGeometry x="140" y="40" width="30" height="20" as="geometry" />
        </mxCell>
        <mxCell id="JMdHC_H9hg7_npxenP9R-133" value="25" style="text;html=1;strokeColor=none;fillColor=none;align=center;verticalAlign=middle;whiteSpace=wrap;rounded=0;" vertex="1" parent="JMdHC_H9hg7_npxenP9R-138">
          <mxGeometry x="40" y="40" width="30" height="20" as="geometry" />
        </mxCell>
        <mxCell id="JMdHC_H9hg7_npxenP9R-134" value="50" style="text;html=1;strokeColor=none;fillColor=none;align=center;verticalAlign=middle;whiteSpace=wrap;rounded=0;" vertex="1" parent="JMdHC_H9hg7_npxenP9R-138">
          <mxGeometry x="90" y="40" width="30" height="20" as="geometry" />
        </mxCell>
        <mxCell id="JMdHC_H9hg7_npxenP9R-8" style="edgeStyle=orthogonalEdgeStyle;rounded=0;orthogonalLoop=1;jettySize=auto;html=1;exitX=0;exitY=0.5;exitDx=0;exitDy=0;" edge="1" parent="1" source="JMdHC_H9hg7_npxenP9R-126">
          <mxGeometry relative="1" as="geometry">
            <mxPoint x="70" y="500" as="targetPoint" />
            <Array as="points">
              <mxPoint x="20" y="60" />
              <mxPoint x="20" y="500" />
            </Array>
            <mxPoint x="10" y="30" as="sourcePoint" />
          </mxGeometry>
        </mxCell>
        <mxCell id="JMdHC_H9hg7_npxenP9R-9" value="50" style="edgeLabel;html=1;align=center;verticalAlign=middle;resizable=0;points=[];" vertex="1" connectable="0" parent="JMdHC_H9hg7_npxenP9R-8">
          <mxGeometry x="0.8836" relative="1" as="geometry">
            <mxPoint as="offset" />
          </mxGeometry>
        </mxCell>
        <mxCell id="JMdHC_H9hg7_npxenP9R-139" value="" style="group" vertex="1" connectable="0" parent="1">
          <mxGeometry x="647" y="320" width="180" height="60" as="geometry" />
        </mxCell>
        <mxCell id="JMdHC_H9hg7_npxenP9R-10" value="" style="rounded=0;whiteSpace=wrap;html=1;container=0;" vertex="1" parent="JMdHC_H9hg7_npxenP9R-139">
          <mxGeometry x="10" width="160" height="40" as="geometry" />
        </mxCell>
        <mxCell id="JMdHC_H9hg7_npxenP9R-12" value="" style="endArrow=none;dashed=1;html=1;rounded=0;entryX=0.25;entryY=0;entryDx=0;entryDy=0;exitX=0.25;exitY=1;exitDx=0;exitDy=0;" edge="1" parent="JMdHC_H9hg7_npxenP9R-139">
          <mxGeometry width="50" height="50" relative="1" as="geometry">
            <mxPoint x="89.8" y="40" as="sourcePoint" />
            <mxPoint x="89.8" as="targetPoint" />
          </mxGeometry>
        </mxCell>
        <mxCell id="JMdHC_H9hg7_npxenP9R-13" value="" style="endArrow=none;dashed=1;html=1;rounded=0;entryX=0.25;entryY=0;entryDx=0;entryDy=0;exitX=0.25;exitY=1;exitDx=0;exitDy=0;" edge="1" parent="JMdHC_H9hg7_npxenP9R-139">
          <mxGeometry width="50" height="50" relative="1" as="geometry">
            <mxPoint x="130" y="40" as="sourcePoint" />
            <mxPoint x="130" as="targetPoint" />
          </mxGeometry>
        </mxCell>
        <mxCell id="JMdHC_H9hg7_npxenP9R-14" value="0" style="text;html=1;strokeColor=none;fillColor=none;align=center;verticalAlign=middle;whiteSpace=wrap;rounded=0;container=0;" vertex="1" parent="JMdHC_H9hg7_npxenP9R-139">
          <mxGeometry y="40" width="20" height="20" as="geometry" />
        </mxCell>
        <mxCell id="JMdHC_H9hg7_npxenP9R-15" value="25" style="text;html=1;strokeColor=none;fillColor=none;align=center;verticalAlign=middle;whiteSpace=wrap;rounded=0;container=0;" vertex="1" parent="JMdHC_H9hg7_npxenP9R-139">
          <mxGeometry x="40" y="40" width="20" height="20" as="geometry" />
        </mxCell>
        <mxCell id="JMdHC_H9hg7_npxenP9R-16" value="50" style="text;html=1;strokeColor=none;fillColor=none;align=center;verticalAlign=middle;whiteSpace=wrap;rounded=0;container=0;" vertex="1" parent="JMdHC_H9hg7_npxenP9R-139">
          <mxGeometry x="80" y="40" width="20" height="20" as="geometry" />
        </mxCell>
        <mxCell id="JMdHC_H9hg7_npxenP9R-17" value="75" style="text;html=1;strokeColor=none;fillColor=none;align=center;verticalAlign=middle;whiteSpace=wrap;rounded=0;container=0;" vertex="1" parent="JMdHC_H9hg7_npxenP9R-139">
          <mxGeometry x="120" y="40" width="20" height="20" as="geometry" />
        </mxCell>
        <mxCell id="JMdHC_H9hg7_npxenP9R-18" value="100" style="text;html=1;strokeColor=none;fillColor=none;align=center;verticalAlign=middle;whiteSpace=wrap;rounded=0;container=0;" vertex="1" parent="JMdHC_H9hg7_npxenP9R-139">
          <mxGeometry x="160" y="40" width="20" height="20" as="geometry" />
        </mxCell>
        <mxCell id="JMdHC_H9hg7_npxenP9R-11" value="" style="endArrow=none;dashed=1;html=1;rounded=0;entryX=0.25;entryY=0;entryDx=0;entryDy=0;exitX=0.25;exitY=1;exitDx=0;exitDy=0;" edge="1" parent="JMdHC_H9hg7_npxenP9R-139" source="JMdHC_H9hg7_npxenP9R-10" target="JMdHC_H9hg7_npxenP9R-10">
          <mxGeometry width="50" height="50" relative="1" as="geometry">
            <mxPoint x="360" y="230" as="sourcePoint" />
            <mxPoint x="410" y="180" as="targetPoint" />
          </mxGeometry>
        </mxCell>
        <mxCell id="JMdHC_H9hg7_npxenP9R-141" value="" style="group" vertex="1" connectable="0" parent="1">
          <mxGeometry x="70" y="160" width="200" height="60" as="geometry" />
        </mxCell>
        <mxCell id="JMdHC_H9hg7_npxenP9R-43" value="" style="rounded=0;whiteSpace=wrap;html=1;" vertex="1" parent="JMdHC_H9hg7_npxenP9R-141">
          <mxGeometry x="10" width="40" height="40" as="geometry" />
        </mxCell>
        <mxCell id="JMdHC_H9hg7_npxenP9R-46" value="" style="rounded=0;whiteSpace=wrap;html=1;" vertex="1" parent="JMdHC_H9hg7_npxenP9R-141">
          <mxGeometry x="110" width="80" height="40" as="geometry" />
        </mxCell>
        <mxCell id="JMdHC_H9hg7_npxenP9R-47" value="0" style="text;html=1;strokeColor=none;fillColor=none;align=center;verticalAlign=middle;whiteSpace=wrap;rounded=0;" vertex="1" parent="JMdHC_H9hg7_npxenP9R-141">
          <mxGeometry y="40" width="20" height="20" as="geometry" />
        </mxCell>
        <mxCell id="JMdHC_H9hg7_npxenP9R-48" value="50" style="text;html=1;strokeColor=none;fillColor=none;align=center;verticalAlign=middle;whiteSpace=wrap;rounded=0;" vertex="1" parent="JMdHC_H9hg7_npxenP9R-141">
          <mxGeometry x="90" y="40" width="30" height="20" as="geometry" />
        </mxCell>
        <mxCell id="JMdHC_H9hg7_npxenP9R-49" value="75" style="text;html=1;strokeColor=none;fillColor=none;align=center;verticalAlign=middle;whiteSpace=wrap;rounded=0;" vertex="1" parent="JMdHC_H9hg7_npxenP9R-141">
          <mxGeometry x="140" y="40" width="20" height="20" as="geometry" />
        </mxCell>
        <mxCell id="JMdHC_H9hg7_npxenP9R-50" value="100" style="text;html=1;strokeColor=none;fillColor=none;align=center;verticalAlign=middle;whiteSpace=wrap;rounded=0;" vertex="1" parent="JMdHC_H9hg7_npxenP9R-141">
          <mxGeometry x="180" y="40" width="20" height="20" as="geometry" />
        </mxCell>
        <mxCell id="JMdHC_H9hg7_npxenP9R-51" value="" style="endArrow=none;dashed=1;html=1;rounded=0;exitX=0.25;exitY=1;exitDx=0;exitDy=0;entryX=0.25;entryY=0;entryDx=0;entryDy=0;" edge="1" parent="JMdHC_H9hg7_npxenP9R-141">
          <mxGeometry width="50" height="50" relative="1" as="geometry">
            <mxPoint x="150" y="40" as="sourcePoint" />
            <mxPoint x="150" as="targetPoint" />
          </mxGeometry>
        </mxCell>
        <mxCell id="JMdHC_H9hg7_npxenP9R-52" value="25" style="text;html=1;strokeColor=none;fillColor=none;align=center;verticalAlign=middle;whiteSpace=wrap;rounded=0;" vertex="1" parent="JMdHC_H9hg7_npxenP9R-141">
          <mxGeometry x="40" y="40" width="30" height="20" as="geometry" />
        </mxCell>
        <mxCell id="JMdHC_H9hg7_npxenP9R-61" value="" style="rounded=0;whiteSpace=wrap;html=1;" vertex="1" parent="JMdHC_H9hg7_npxenP9R-141">
          <mxGeometry x="60" width="40" height="40" as="geometry" />
        </mxCell>
        <mxCell id="JMdHC_H9hg7_npxenP9R-142" value="" style="group" vertex="1" connectable="0" parent="1">
          <mxGeometry x="70" y="320" width="200" height="60" as="geometry" />
        </mxCell>
        <mxCell id="JMdHC_H9hg7_npxenP9R-53" value="" style="rounded=0;whiteSpace=wrap;html=1;" vertex="1" parent="JMdHC_H9hg7_npxenP9R-142">
          <mxGeometry x="10" width="40" height="40" as="geometry" />
        </mxCell>
        <mxCell id="JMdHC_H9hg7_npxenP9R-54" value="" style="rounded=0;whiteSpace=wrap;html=1;" vertex="1" parent="JMdHC_H9hg7_npxenP9R-142">
          <mxGeometry x="60" width="80" height="40" as="geometry" />
        </mxCell>
        <mxCell id="JMdHC_H9hg7_npxenP9R-55" value="0" style="text;html=1;strokeColor=none;fillColor=none;align=center;verticalAlign=middle;whiteSpace=wrap;rounded=0;" vertex="1" parent="JMdHC_H9hg7_npxenP9R-142">
          <mxGeometry y="40" width="20" height="20" as="geometry" />
        </mxCell>
        <mxCell id="JMdHC_H9hg7_npxenP9R-56" value="50" style="text;html=1;strokeColor=none;fillColor=none;align=center;verticalAlign=middle;whiteSpace=wrap;rounded=0;" vertex="1" parent="JMdHC_H9hg7_npxenP9R-142">
          <mxGeometry x="90" y="40" width="20" height="20" as="geometry" />
        </mxCell>
        <mxCell id="JMdHC_H9hg7_npxenP9R-57" value="75" style="text;html=1;strokeColor=none;fillColor=none;align=center;verticalAlign=middle;whiteSpace=wrap;rounded=0;" vertex="1" parent="JMdHC_H9hg7_npxenP9R-142">
          <mxGeometry x="130" y="40" width="30" height="20" as="geometry" />
        </mxCell>
        <mxCell id="JMdHC_H9hg7_npxenP9R-58" value="100" style="text;html=1;strokeColor=none;fillColor=none;align=center;verticalAlign=middle;whiteSpace=wrap;rounded=0;" vertex="1" parent="JMdHC_H9hg7_npxenP9R-142">
          <mxGeometry x="180" y="40" width="20" height="20" as="geometry" />
        </mxCell>
        <mxCell id="JMdHC_H9hg7_npxenP9R-59" value="" style="endArrow=none;dashed=1;html=1;rounded=0;exitX=0.25;exitY=1;exitDx=0;exitDy=0;entryX=0.25;entryY=0;entryDx=0;entryDy=0;" edge="1" parent="JMdHC_H9hg7_npxenP9R-142">
          <mxGeometry width="50" height="50" relative="1" as="geometry">
            <mxPoint x="99.43" y="40" as="sourcePoint" />
            <mxPoint x="99.43" as="targetPoint" />
          </mxGeometry>
        </mxCell>
        <mxCell id="JMdHC_H9hg7_npxenP9R-60" value="25" style="text;html=1;strokeColor=none;fillColor=none;align=center;verticalAlign=middle;whiteSpace=wrap;rounded=0;" vertex="1" parent="JMdHC_H9hg7_npxenP9R-142">
          <mxGeometry x="40" y="40" width="30" height="20" as="geometry" />
        </mxCell>
        <mxCell id="JMdHC_H9hg7_npxenP9R-64" value="" style="rounded=0;whiteSpace=wrap;html=1;" vertex="1" parent="JMdHC_H9hg7_npxenP9R-142">
          <mxGeometry x="150" width="40" height="40" as="geometry" />
        </mxCell>
        <mxCell id="JMdHC_H9hg7_npxenP9R-144" value="" style="group" vertex="1" connectable="0" parent="1">
          <mxGeometry x="70" y="480" width="200" height="60" as="geometry" />
        </mxCell>
        <mxCell id="JMdHC_H9hg7_npxenP9R-76" value="" style="rounded=0;whiteSpace=wrap;html=1;" vertex="1" parent="JMdHC_H9hg7_npxenP9R-144">
          <mxGeometry x="100" width="40" height="40" as="geometry" />
        </mxCell>
        <mxCell id="JMdHC_H9hg7_npxenP9R-77" value="" style="rounded=0;whiteSpace=wrap;html=1;" vertex="1" parent="JMdHC_H9hg7_npxenP9R-144">
          <mxGeometry x="10" width="80" height="40" as="geometry" />
        </mxCell>
        <mxCell id="JMdHC_H9hg7_npxenP9R-78" value="0" style="text;html=1;strokeColor=none;fillColor=none;align=center;verticalAlign=middle;whiteSpace=wrap;rounded=0;" vertex="1" parent="JMdHC_H9hg7_npxenP9R-144">
          <mxGeometry y="40" width="20" height="20" as="geometry" />
        </mxCell>
        <mxCell id="JMdHC_H9hg7_npxenP9R-79" value="50" style="text;html=1;strokeColor=none;fillColor=none;align=center;verticalAlign=middle;whiteSpace=wrap;rounded=0;" vertex="1" parent="JMdHC_H9hg7_npxenP9R-144">
          <mxGeometry x="80" y="40" width="30" height="20" as="geometry" />
        </mxCell>
        <mxCell id="JMdHC_H9hg7_npxenP9R-80" value="75" style="text;html=1;strokeColor=none;fillColor=none;align=center;verticalAlign=middle;whiteSpace=wrap;rounded=0;" vertex="1" parent="JMdHC_H9hg7_npxenP9R-144">
          <mxGeometry x="130" y="40" width="30" height="20" as="geometry" />
        </mxCell>
        <mxCell id="JMdHC_H9hg7_npxenP9R-81" value="100" style="text;html=1;strokeColor=none;fillColor=none;align=center;verticalAlign=middle;whiteSpace=wrap;rounded=0;" vertex="1" parent="JMdHC_H9hg7_npxenP9R-144">
          <mxGeometry x="180" y="40" width="20" height="20" as="geometry" />
        </mxCell>
        <mxCell id="JMdHC_H9hg7_npxenP9R-82" value="" style="endArrow=none;dashed=1;html=1;rounded=0;exitX=0.25;exitY=1;exitDx=0;exitDy=0;entryX=0.25;entryY=0;entryDx=0;entryDy=0;" edge="1" parent="JMdHC_H9hg7_npxenP9R-144">
          <mxGeometry width="50" height="50" relative="1" as="geometry">
            <mxPoint x="49.170000000000016" y="40" as="sourcePoint" />
            <mxPoint x="49.170000000000016" as="targetPoint" />
          </mxGeometry>
        </mxCell>
        <mxCell id="JMdHC_H9hg7_npxenP9R-83" value="25" style="text;html=1;strokeColor=none;fillColor=none;align=center;verticalAlign=middle;whiteSpace=wrap;rounded=0;" vertex="1" parent="JMdHC_H9hg7_npxenP9R-144">
          <mxGeometry x="40" y="40" width="20" height="20" as="geometry" />
        </mxCell>
        <mxCell id="JMdHC_H9hg7_npxenP9R-86" value="" style="rounded=0;whiteSpace=wrap;html=1;" vertex="1" parent="JMdHC_H9hg7_npxenP9R-144">
          <mxGeometry x="150" width="40" height="40" as="geometry" />
        </mxCell>
        <mxCell id="JMdHC_H9hg7_npxenP9R-147" value="" style="group" vertex="1" connectable="0" parent="1">
          <mxGeometry x="350" y="440" width="190" height="60" as="geometry" />
        </mxCell>
        <mxCell id="JMdHC_H9hg7_npxenP9R-148" value="25" style="text;html=1;strokeColor=none;fillColor=none;align=center;verticalAlign=middle;whiteSpace=wrap;rounded=0;" vertex="1" parent="JMdHC_H9hg7_npxenP9R-147">
          <mxGeometry x="40" y="40" width="20" height="20" as="geometry" />
        </mxCell>
        <mxCell id="JMdHC_H9hg7_npxenP9R-149" value="" style="rounded=0;whiteSpace=wrap;html=1;" vertex="1" parent="JMdHC_H9hg7_npxenP9R-147">
          <mxGeometry x="10" width="80" height="40" as="geometry" />
        </mxCell>
        <mxCell id="JMdHC_H9hg7_npxenP9R-150" value="0" style="text;html=1;strokeColor=none;fillColor=none;align=center;verticalAlign=middle;whiteSpace=wrap;rounded=0;" vertex="1" parent="JMdHC_H9hg7_npxenP9R-147">
          <mxGeometry y="40" width="20" height="20" as="geometry" />
        </mxCell>
        <mxCell id="JMdHC_H9hg7_npxenP9R-151" value="50" style="text;html=1;strokeColor=none;fillColor=none;align=center;verticalAlign=middle;whiteSpace=wrap;rounded=0;" vertex="1" parent="JMdHC_H9hg7_npxenP9R-147">
          <mxGeometry x="80" y="40" width="30" height="20" as="geometry" />
        </mxCell>
        <mxCell id="JMdHC_H9hg7_npxenP9R-184" style="edgeStyle=orthogonalEdgeStyle;rounded=0;orthogonalLoop=1;jettySize=auto;html=1;endArrow=none;endFill=0;" edge="1" parent="JMdHC_H9hg7_npxenP9R-147" source="JMdHC_H9hg7_npxenP9R-152">
          <mxGeometry relative="1" as="geometry">
            <mxPoint x="250" y="-60" as="targetPoint" />
          </mxGeometry>
        </mxCell>
        <mxCell id="JMdHC_H9hg7_npxenP9R-152" value="" style="rounded=0;whiteSpace=wrap;html=1;" vertex="1" parent="JMdHC_H9hg7_npxenP9R-147">
          <mxGeometry x="100" width="80" height="40" as="geometry" />
        </mxCell>
        <mxCell id="JMdHC_H9hg7_npxenP9R-153" value="75" style="text;html=1;strokeColor=none;fillColor=none;align=center;verticalAlign=middle;whiteSpace=wrap;rounded=0;" vertex="1" parent="JMdHC_H9hg7_npxenP9R-147">
          <mxGeometry x="130" y="40" width="20" height="20" as="geometry" />
        </mxCell>
        <mxCell id="JMdHC_H9hg7_npxenP9R-154" value="100" style="text;html=1;strokeColor=none;fillColor=none;align=center;verticalAlign=middle;whiteSpace=wrap;rounded=0;" vertex="1" parent="JMdHC_H9hg7_npxenP9R-147">
          <mxGeometry x="170" y="40" width="20" height="20" as="geometry" />
        </mxCell>
        <mxCell id="JMdHC_H9hg7_npxenP9R-155" value="" style="endArrow=none;dashed=1;html=1;rounded=0;exitX=0.25;exitY=1;exitDx=0;exitDy=0;entryX=0.25;entryY=0;entryDx=0;entryDy=0;" edge="1" parent="JMdHC_H9hg7_npxenP9R-147">
          <mxGeometry width="50" height="50" relative="1" as="geometry">
            <mxPoint x="49.71000000000001" y="40" as="sourcePoint" />
            <mxPoint x="49.71000000000001" as="targetPoint" />
          </mxGeometry>
        </mxCell>
        <mxCell id="JMdHC_H9hg7_npxenP9R-156" value="" style="endArrow=none;dashed=1;html=1;rounded=0;exitX=0.25;exitY=1;exitDx=0;exitDy=0;entryX=0.25;entryY=0;entryDx=0;entryDy=0;" edge="1" parent="JMdHC_H9hg7_npxenP9R-147">
          <mxGeometry width="50" height="50" relative="1" as="geometry">
            <mxPoint x="139.71000000000004" y="40" as="sourcePoint" />
            <mxPoint x="139.71000000000004" as="targetPoint" />
          </mxGeometry>
        </mxCell>
        <mxCell id="JMdHC_H9hg7_npxenP9R-157" value="" style="group" vertex="1" connectable="0" parent="1">
          <mxGeometry x="350" y="280" width="190" height="60" as="geometry" />
        </mxCell>
        <mxCell id="JMdHC_H9hg7_npxenP9R-158" value="" style="rounded=0;whiteSpace=wrap;html=1;" vertex="1" parent="JMdHC_H9hg7_npxenP9R-157">
          <mxGeometry x="10" width="40" height="40" as="geometry" />
        </mxCell>
        <mxCell id="JMdHC_H9hg7_npxenP9R-182" style="edgeStyle=orthogonalEdgeStyle;rounded=0;orthogonalLoop=1;jettySize=auto;html=1;endArrow=none;endFill=0;" edge="1" parent="JMdHC_H9hg7_npxenP9R-157" source="JMdHC_H9hg7_npxenP9R-159">
          <mxGeometry relative="1" as="geometry">
            <mxPoint x="250" y="20" as="targetPoint" />
          </mxGeometry>
        </mxCell>
        <mxCell id="JMdHC_H9hg7_npxenP9R-159" value="" style="rounded=0;whiteSpace=wrap;html=1;" vertex="1" parent="JMdHC_H9hg7_npxenP9R-157">
          <mxGeometry x="60" width="120" height="40" as="geometry" />
        </mxCell>
        <mxCell id="JMdHC_H9hg7_npxenP9R-160" value="0" style="text;html=1;strokeColor=none;fillColor=none;align=center;verticalAlign=middle;whiteSpace=wrap;rounded=0;" vertex="1" parent="JMdHC_H9hg7_npxenP9R-157">
          <mxGeometry y="40" width="20" height="20" as="geometry" />
        </mxCell>
        <mxCell id="JMdHC_H9hg7_npxenP9R-161" value="50" style="text;html=1;strokeColor=none;fillColor=none;align=center;verticalAlign=middle;whiteSpace=wrap;rounded=0;" vertex="1" parent="JMdHC_H9hg7_npxenP9R-157">
          <mxGeometry x="90" y="40" width="20" height="20" as="geometry" />
        </mxCell>
        <mxCell id="JMdHC_H9hg7_npxenP9R-162" value="75" style="text;html=1;strokeColor=none;fillColor=none;align=center;verticalAlign=middle;whiteSpace=wrap;rounded=0;" vertex="1" parent="JMdHC_H9hg7_npxenP9R-157">
          <mxGeometry x="130" y="40" width="20" height="20" as="geometry" />
        </mxCell>
        <mxCell id="JMdHC_H9hg7_npxenP9R-163" value="100" style="text;html=1;strokeColor=none;fillColor=none;align=center;verticalAlign=middle;whiteSpace=wrap;rounded=0;" vertex="1" parent="JMdHC_H9hg7_npxenP9R-157">
          <mxGeometry x="170" y="40" width="20" height="20" as="geometry" />
        </mxCell>
        <mxCell id="JMdHC_H9hg7_npxenP9R-164" value="" style="endArrow=none;dashed=1;html=1;rounded=0;exitX=0.25;exitY=1;exitDx=0;exitDy=0;entryX=0.25;entryY=0;entryDx=0;entryDy=0;" edge="1" parent="JMdHC_H9hg7_npxenP9R-157">
          <mxGeometry width="50" height="50" relative="1" as="geometry">
            <mxPoint x="99.43" y="40" as="sourcePoint" />
            <mxPoint x="99.43" as="targetPoint" />
          </mxGeometry>
        </mxCell>
        <mxCell id="JMdHC_H9hg7_npxenP9R-165" value="" style="endArrow=none;dashed=1;html=1;rounded=0;exitX=0.25;exitY=1;exitDx=0;exitDy=0;entryX=0.25;entryY=0;entryDx=0;entryDy=0;" edge="1" parent="JMdHC_H9hg7_npxenP9R-157">
          <mxGeometry width="50" height="50" relative="1" as="geometry">
            <mxPoint x="140" y="40" as="sourcePoint" />
            <mxPoint x="140" as="targetPoint" />
          </mxGeometry>
        </mxCell>
        <mxCell id="JMdHC_H9hg7_npxenP9R-166" value="25" style="text;html=1;strokeColor=none;fillColor=none;align=center;verticalAlign=middle;whiteSpace=wrap;rounded=0;" vertex="1" parent="JMdHC_H9hg7_npxenP9R-157">
          <mxGeometry x="40" y="40" width="30" height="20" as="geometry" />
        </mxCell>
        <mxCell id="JMdHC_H9hg7_npxenP9R-167" value="" style="group" vertex="1" connectable="0" parent="1">
          <mxGeometry x="350" y="360" width="190" height="60" as="geometry" />
        </mxCell>
        <mxCell id="JMdHC_H9hg7_npxenP9R-168" value="" style="rounded=0;whiteSpace=wrap;html=1;" vertex="1" parent="JMdHC_H9hg7_npxenP9R-167">
          <mxGeometry x="10" width="120" height="40" as="geometry" />
        </mxCell>
        <mxCell id="JMdHC_H9hg7_npxenP9R-183" style="edgeStyle=orthogonalEdgeStyle;rounded=0;orthogonalLoop=1;jettySize=auto;html=1;endArrow=none;endFill=0;" edge="1" parent="JMdHC_H9hg7_npxenP9R-167" source="JMdHC_H9hg7_npxenP9R-169">
          <mxGeometry relative="1" as="geometry">
            <mxPoint x="250" y="-20" as="targetPoint" />
          </mxGeometry>
        </mxCell>
        <mxCell id="JMdHC_H9hg7_npxenP9R-169" value="" style="rounded=0;whiteSpace=wrap;html=1;" vertex="1" parent="JMdHC_H9hg7_npxenP9R-167">
          <mxGeometry x="140" width="40" height="40" as="geometry" />
        </mxCell>
        <mxCell id="JMdHC_H9hg7_npxenP9R-170" value="0" style="text;html=1;strokeColor=none;fillColor=none;align=center;verticalAlign=middle;whiteSpace=wrap;rounded=0;" vertex="1" parent="JMdHC_H9hg7_npxenP9R-167">
          <mxGeometry y="40" width="20" height="20" as="geometry" />
        </mxCell>
        <mxCell id="JMdHC_H9hg7_npxenP9R-171" value="50" style="text;html=1;strokeColor=none;fillColor=none;align=center;verticalAlign=middle;whiteSpace=wrap;rounded=0;" vertex="1" parent="JMdHC_H9hg7_npxenP9R-167">
          <mxGeometry x="80" y="40" width="20" height="20" as="geometry" />
        </mxCell>
        <mxCell id="JMdHC_H9hg7_npxenP9R-172" value="75" style="text;html=1;strokeColor=none;fillColor=none;align=center;verticalAlign=middle;whiteSpace=wrap;rounded=0;" vertex="1" parent="JMdHC_H9hg7_npxenP9R-167">
          <mxGeometry x="120" y="40" width="30" height="20" as="geometry" />
        </mxCell>
        <mxCell id="JMdHC_H9hg7_npxenP9R-173" value="100" style="text;html=1;strokeColor=none;fillColor=none;align=center;verticalAlign=middle;whiteSpace=wrap;rounded=0;" vertex="1" parent="JMdHC_H9hg7_npxenP9R-167">
          <mxGeometry x="170" y="40" width="20" height="20" as="geometry" />
        </mxCell>
        <mxCell id="JMdHC_H9hg7_npxenP9R-174" value="" style="endArrow=none;dashed=1;html=1;rounded=0;exitX=0.25;exitY=1;exitDx=0;exitDy=0;entryX=0.25;entryY=0;entryDx=0;entryDy=0;" edge="1" parent="JMdHC_H9hg7_npxenP9R-167">
          <mxGeometry width="50" height="50" relative="1" as="geometry">
            <mxPoint x="50" y="40" as="sourcePoint" />
            <mxPoint x="50" as="targetPoint" />
          </mxGeometry>
        </mxCell>
        <mxCell id="JMdHC_H9hg7_npxenP9R-175" value="25" style="text;html=1;strokeColor=none;fillColor=none;align=center;verticalAlign=middle;whiteSpace=wrap;rounded=0;" vertex="1" parent="JMdHC_H9hg7_npxenP9R-167">
          <mxGeometry x="40" y="40" width="20" height="20" as="geometry" />
        </mxCell>
        <mxCell id="JMdHC_H9hg7_npxenP9R-176" value="" style="endArrow=none;dashed=1;html=1;rounded=0;exitX=0.25;exitY=1;exitDx=0;exitDy=0;entryX=0.25;entryY=0;entryDx=0;entryDy=0;" edge="1" parent="JMdHC_H9hg7_npxenP9R-167">
          <mxGeometry width="50" height="50" relative="1" as="geometry">
            <mxPoint x="90" y="40" as="sourcePoint" />
            <mxPoint x="90" as="targetPoint" />
          </mxGeometry>
        </mxCell>
      </root>
    </mxGraphModel>
  </diagram>
</mxfile>
